<svg width="20" height="20" viewBox="0 0 20 20" fill="none" xmlns="http://www.w3.org/2000/svg">
<path d="M12.4998 18.9584H7.49984C2.97484 18.9584 1.0415 17.025 1.0415 12.5V7.50002C1.0415 2.97502 2.97484 1.04169 7.49984 1.04169H12.4998C17.0248 1.04169 18.9582 2.97502 18.9582 7.50002V12.5C18.9582 17.025 17.0248 18.9584 12.4998 18.9584ZM7.49984 2.29169C3.65817 2.29169 2.2915 3.65835 2.2915 7.50002V12.5C2.2915 16.3417 3.65817 17.7084 7.49984 17.7084H12.4998C16.3415 17.7084 17.7082 16.3417 17.7082 12.5V7.50002C17.7082 3.65835 16.3415 2.29169 12.4998 2.29169H7.49984Z" fill="#818181"/>
<path d="M10 10.9C9.89168 10.9 9.78335 10.875 9.68335 10.8166L5.26669 8.26664C4.96669 8.09164 4.86667 7.70831 5.04167 7.41664C5.21667 7.11664 5.60002 7.01664 5.89169 7.19164L9.99168 9.56665L14.0667 7.20831C14.3667 7.03331 14.75 7.14164 14.9167 7.43331C15.0833 7.72497 14.9834 8.11664 14.6917 8.28331L10.3083 10.8166C10.2167 10.8666 10.1083 10.9 10 10.9Z" fill="#818181"/>
<path d="M10 15.4333C9.65833 15.4333 9.375 15.15 9.375 14.8083V10.275C9.375 9.9333 9.65833 9.64996 10 9.64996C10.3417 9.64996 10.625 9.9333 10.625 10.275V14.8083C10.625 15.15 10.3417 15.4333 10 15.4333Z" fill="#818181"/>
<path d="M10.0002 15.625C9.51687 15.625 9.04188 15.5166 8.65855 15.3083L5.99187 13.825C5.19187 13.3833 4.5752 12.325 4.5752 11.4083V8.58331C4.5752 7.67498 5.20021 6.61665 5.99187 6.16665L8.65855 4.68331C9.42522 4.25831 10.5752 4.25831 11.3419 4.68331L14.0085 6.16665C14.8085 6.60831 15.4252 7.66665 15.4252 8.58331V11.4083C15.4252 12.3166 14.8002 13.375 14.0085 13.825L11.3419 15.3083C10.9585 15.525 10.4835 15.625 10.0002 15.625ZM10.0002 5.62498C9.7252 5.62498 9.45853 5.67498 9.26687 5.78331L6.60021 7.26664C6.19188 7.49164 5.8252 8.12498 5.8252 8.58331V11.4083C5.8252 11.875 6.19188 12.5 6.60021 12.725L9.26687 14.2083C9.6502 14.425 10.3502 14.425 10.7335 14.2083L13.4002 12.725C13.8085 12.5 14.1752 11.8666 14.1752 11.4083V8.58331C14.1752 8.11665 13.8085 7.49164 13.4002 7.26664L10.7335 5.78331C10.5419 5.67498 10.2752 5.62498 10.0002 5.62498Z" fill="#818181"/>
</svg>
