<svg width="20" height="20" viewBox="0 0 20 20" fill="none" xmlns="http://www.w3.org/2000/svg">
<path d="M15.8334 18.9583C14.6667 18.9583 13.575 18.45 12.825 17.5583C12.8167 17.5417 12.7667 17.5 12.725 17.4333C12.6334 17.3417 12.525 17.175 12.4334 17.0167C12.0667 16.425 11.8667 15.725 11.8667 14.9917C11.8667 13.775 12.4084 12.65 13.35 11.9C14.05 11.3417 14.9334 11.0333 15.825 11.0333C16.7917 11.0333 17.6834 11.3667 18.4 11.9917C18.5 12.0583 18.6167 12.1833 18.725 12.3C19.4 13.0417 19.775 13.9917 19.775 14.9833C19.775 15.7083 19.575 16.4167 19.2 17.025C19 17.375 18.725 17.6917 18.4084 17.9583C17.7334 18.6083 16.8084 18.9583 15.8334 18.9583ZM15.8334 12.2917C15.2167 12.2917 14.6334 12.5 14.1417 12.8916C13.5 13.4 13.125 14.175 13.125 15C13.125 15.4917 13.2584 15.975 13.5167 16.3917C13.5834 16.5083 13.65 16.6 13.725 16.6917C13.7417 16.7084 13.7917 16.7583 13.8334 16.825C14.2917 17.3667 15.0417 17.7167 15.8334 17.7167C16.4917 17.7167 17.125 17.475 17.6084 17.0417C17.825 16.8583 18.0084 16.6417 18.1417 16.4083C18.4084 15.9833 18.5417 15.5 18.5417 15.0083C18.5417 14.3333 18.2834 13.675 17.8167 13.1667C17.7584 13.1 17.6917 13.0333 17.625 12.9833C17.1 12.5167 16.4917 12.2917 15.8334 12.2917Z" fill="#818181"/>
<path d="M17.0752 15.6083H14.5835C14.2418 15.6083 13.9585 15.325 13.9585 14.9833C13.9585 14.6417 14.2418 14.3583 14.5835 14.3583H17.0752C17.4168 14.3583 17.7002 14.6417 17.7002 14.9833C17.7002 15.325 17.4252 15.6083 17.0752 15.6083Z" fill="#818181"/>
<path d="M15.8335 16.8833C15.4918 16.8833 15.2085 16.6 15.2085 16.2583V13.7667C15.2085 13.425 15.4918 13.1417 15.8335 13.1417C16.1752 13.1417 16.4585 13.425 16.4585 13.7667V16.2583C16.4585 16.6083 16.1752 16.8833 15.8335 16.8833Z" fill="#818181"/>
<path d="M9.99978 11.0832C9.89145 11.0832 9.78311 11.0582 9.68311 10.9999L2.32478 6.74156C2.02478 6.56656 1.92479 6.18321 2.09979 5.88321C2.27479 5.58321 2.65811 5.48319 2.94978 5.65819L9.99145 9.7332L16.9914 5.68321C17.2914 5.50821 17.6748 5.61656 17.8415 5.90823C18.0165 6.20823 17.9081 6.59154 17.6164 6.76654L10.3081 10.9999C10.2164 11.0499 10.1081 11.0832 9.99978 11.0832Z" fill="#818181"/>
<path d="M10 18.6332C9.65833 18.6332 9.375 18.3498 9.375 18.0082V10.4498C9.375 10.1082 9.65833 9.82483 10 9.82483C10.3417 9.82483 10.625 10.1082 10.625 10.4498V18.0082C10.625 18.3498 10.3417 18.6332 10 18.6332Z" fill="#818181"/>
<path d="M10.0001 18.9583C9.26673 18.9583 8.53339 18.7999 7.96673 18.4749L3.51673 16.0083C2.3084 15.3416 1.3584 13.7333 1.3584 12.35V7.63327C1.3584 6.24993 2.3084 4.64997 3.51673 3.97497L7.96673 1.50829C9.10006 0.866622 10.8834 0.866622 12.0251 1.50829L16.4751 3.97497C17.6834 4.64164 18.6334 6.24993 18.6334 7.63327V12.35C18.6334 12.4333 18.6334 12.4999 18.6167 12.5833C18.5751 12.7999 18.4167 12.9833 18.2084 13.0499C18.0001 13.1249 17.7667 13.075 17.5917 12.9333C16.6334 12.1 15.1501 12.0666 14.1417 12.875C13.5001 13.3833 13.1251 14.1583 13.1251 14.9833C13.1251 15.4749 13.2584 15.9583 13.5167 16.375C13.5834 16.4916 13.6501 16.5833 13.7251 16.675C13.8501 16.8166 13.9001 17.0083 13.8667 17.1916C13.8334 17.375 13.7167 17.5333 13.5501 17.625L12.0251 18.4666C11.4584 18.7999 10.7334 18.9583 10.0001 18.9583ZM10.0001 2.29162C9.48339 2.29162 8.9584 2.39996 8.5834 2.60829L4.1334 5.07498C3.32507 5.51665 2.62506 6.7166 2.62506 7.63327V12.35C2.62506 13.2666 3.3334 14.4666 4.1334 14.9083L8.5834 17.3749C9.34173 17.7999 10.6667 17.7999 11.4251 17.3749L12.3584 16.8583C12.0501 16.2999 11.8834 15.6499 11.8834 14.9833C11.8834 13.7666 12.4251 12.6416 13.3667 11.8916C14.5001 10.9833 16.1251 10.7916 17.3917 11.3333V7.61664C17.3917 6.69997 16.6834 5.49996 15.8834 5.0583L11.4334 2.59161C11.0417 2.39995 10.5167 2.29162 10.0001 2.29162Z" fill="#818181"/>
</svg>
