<svg width="48" height="48" viewBox="0 0 48 48" fill="none" xmlns="http://www.w3.org/2000/svg">
<circle cx="24" cy="24" r="24" fill="white"/>
<path d="M32.2097 19.82L24.5097 24.28C24.1997 24.46 23.8097 24.46 23.4897 24.28L15.7897 19.82C15.2397 19.5 15.0997 18.75 15.5197 18.28C15.8097 17.95 16.1397 17.68 16.4897 17.49L21.9097 14.49C23.0697 13.84 24.9497 13.84 26.1097 14.49L31.5297 17.49C31.8797 17.68 32.2097 17.96 32.4997 18.28C32.8997 18.75 32.7597 19.5 32.2097 19.82Z" fill="#20B2AA"/>
<path d="M23.43 26.14V32.96C23.43 33.72 22.66 34.22 21.98 33.89C19.92 32.88 16.45 30.99 16.45 30.99C15.23 30.3 14.23 28.56 14.23 27.13V21.97C14.23 21.18 15.06 20.68 15.74 21.07L22.93 25.24C23.23 25.43 23.43 25.77 23.43 26.14Z" fill="#20B2AA"/>
<path d="M24.5698 26.14V32.96C24.5698 33.72 25.3398 34.22 26.0198 33.89C28.0798 32.88 31.5498 30.99 31.5498 30.99C32.7698 30.3 33.7698 28.56 33.7698 27.13V21.97C33.7698 21.18 32.9398 20.68 32.2598 21.07L25.0698 25.24C24.7698 25.43 24.5698 25.77 24.5698 26.14Z" fill="#20B2AA"/>
</svg>
