<svg width="20" height="20" viewBox="0 0 20 20" fill="none" xmlns="http://www.w3.org/2000/svg">
<path d="M12.4998 18.9584H7.49984C2.97484 18.9584 1.0415 17.025 1.0415 12.5V7.50002C1.0415 2.97502 2.97484 1.04169 7.49984 1.04169H12.4998C17.0248 1.04169 18.9582 2.97502 18.9582 7.50002V12.5C18.9582 17.025 17.0248 18.9584 12.4998 18.9584ZM7.49984 2.29169C3.65817 2.29169 2.2915 3.65835 2.2915 7.50002V12.5C2.2915 16.3417 3.65817 17.7084 7.49984 17.7084H12.4998C16.3415 17.7084 17.7082 16.3417 17.7082 12.5V7.50002C17.7082 3.65835 16.3415 2.29169 12.4998 2.29169H7.49984Z" fill="#818181"/>
<path d="M12.9167 16.0416C11.65 16.0416 10.625 15.0166 10.625 13.75V6.24998C10.625 4.98331 11.65 3.95831 12.9167 3.95831C14.1833 3.95831 15.2083 4.98331 15.2083 6.24998V13.75C15.2083 15.0166 14.1833 16.0416 12.9167 16.0416ZM12.9167 5.20831C12.3417 5.20831 11.875 5.67498 11.875 6.24998V13.75C11.875 14.325 12.3417 14.7916 12.9167 14.7916C13.4917 14.7916 13.9583 14.325 13.9583 13.75V6.24998C13.9583 5.67498 13.4917 5.20831 12.9167 5.20831Z" fill="#818181"/>
<path d="M7.08317 16.0417C5.8165 16.0417 4.7915 15.0167 4.7915 13.75V10.8334C4.7915 9.56669 5.8165 8.54169 7.08317 8.54169C8.34984 8.54169 9.37484 9.56669 9.37484 10.8334V13.75C9.37484 15.0167 8.34984 16.0417 7.08317 16.0417ZM7.08317 9.79169C6.50817 9.79169 6.0415 10.2584 6.0415 10.8334V13.75C6.0415 14.325 6.50817 14.7917 7.08317 14.7917C7.65817 14.7917 8.12484 14.325 8.12484 13.75V10.8334C8.12484 10.2584 7.65817 9.79169 7.08317 9.79169Z" fill="#818181"/>
</svg>
