<svg width="20" height="20" viewBox="0 0 20 20" fill="none" xmlns="http://www.w3.org/2000/svg">
<path d="M11.6665 5.62502H8.33317C7.53317 5.62502 6.0415 5.62502 6.0415 3.33335C6.0415 1.04169 7.53317 1.04169 8.33317 1.04169H11.6665C12.4665 1.04169 13.9582 1.04169 13.9582 3.33335C13.9582 4.13335 13.9582 5.62502 11.6665 5.62502ZM8.33317 2.29169C7.50817 2.29169 7.2915 2.29169 7.2915 3.33335C7.2915 4.37502 7.50817 4.37502 8.33317 4.37502H11.6665C12.7082 4.37502 12.7082 4.15835 12.7082 3.33335C12.7082 2.29169 12.4915 2.29169 11.6665 2.29169H8.33317Z" fill="#818181"/>
<path d="M11.6667 18.9584H7.5C2.81667 18.9584 1.875 16.8084 1.875 13.3334V8.33337C1.875 4.53337 3.25 2.90837 6.63333 2.73337C6.95833 2.7167 7.275 2.97503 7.29167 3.32503C7.30833 3.67503 7.04167 3.95837 6.7 3.97503C4.33333 4.10837 3.125 4.8167 3.125 8.33337V13.3334C3.125 16.4167 3.73333 17.7084 7.5 17.7084H11.6667C12.0083 17.7084 12.2917 17.9917 12.2917 18.3334C12.2917 18.675 12.0083 18.9584 11.6667 18.9584Z" fill="#818181"/>
<path d="M17.4999 13.125C17.1583 13.125 16.8749 12.8417 16.8749 12.5V8.33332C16.8749 4.81665 15.6666 4.10832 13.2999 3.97498C12.9583 3.95832 12.6916 3.65832 12.7083 3.31665C12.7249 2.97498 13.0249 2.70832 13.3666 2.72498C16.7499 2.90832 18.1249 4.53332 18.1249 8.32498V12.4917C18.1249 12.8417 17.8416 13.125 17.4999 13.125Z" fill="#818181"/>
<path d="M12.5 16.4583C12.1583 16.4583 11.875 16.175 11.875 15.8333V13.3333C11.875 12.9916 12.1583 12.7083 12.5 12.7083H15C15.3417 12.7083 15.625 12.9916 15.625 13.3333C15.625 13.675 15.3417 13.9583 15 13.9583H13.125V15.8333C13.125 16.175 12.8417 16.4583 12.5 16.4583Z" fill="#818181"/>
<path d="M17.5002 18.9583C17.3419 18.9583 17.1836 18.9 17.0586 18.775L12.0919 13.8083C11.8502 13.5666 11.8502 13.1666 12.0919 12.925C12.3336 12.6833 12.7336 12.6833 12.9752 12.925L17.9419 17.8916C18.1836 18.1333 18.1836 18.5333 17.9419 18.775C17.8169 18.9 17.6586 18.9583 17.5002 18.9583Z" fill="#818181"/>
</svg>
