<svg width="20" height="20" viewBox="0 0 20 20" fill="none" xmlns="http://www.w3.org/2000/svg">
<path d="M11.6665 5.62502H8.33317C7.53317 5.62502 6.0415 5.62502 6.0415 3.33335C6.0415 1.04169 7.53317 1.04169 8.33317 1.04169H11.6665C12.4665 1.04169 13.9582 1.04169 13.9582 3.33335C13.9582 4.13335 13.9582 5.62502 11.6665 5.62502ZM8.33317 2.29169C7.50817 2.29169 7.2915 2.29169 7.2915 3.33335C7.2915 4.37502 7.50817 4.37502 8.33317 4.37502H11.6665C12.7082 4.37502 12.7082 4.15835 12.7082 3.33335C12.7082 2.29169 12.4915 2.29169 11.6665 2.29169H8.33317Z" fill="#818181"/>
<path d="M11.6667 18.9584H7.5C2.81667 18.9584 1.875 16.8084 1.875 13.3334V8.33337C1.875 4.53337 3.25 2.90837 6.63333 2.73337C6.96667 2.7167 7.275 2.97503 7.29167 3.32503C7.30833 3.67503 7.04167 3.95837 6.7 3.97503C4.33333 4.10837 3.125 4.8167 3.125 8.33337V13.3334C3.125 16.4167 3.73333 17.7084 7.5 17.7084H11.6667C12.0083 17.7084 12.2917 17.9917 12.2917 18.3334C12.2917 18.675 12.0083 18.9584 11.6667 18.9584Z" fill="#818181"/>
<path d="M17.4999 13.125C17.1583 13.125 16.8749 12.8417 16.8749 12.5V8.33332C16.8749 4.81665 15.6666 4.10832 13.2999 3.97498C12.9583 3.95832 12.6916 3.65832 12.7083 3.31665C12.7249 2.97498 13.0333 2.70832 13.3666 2.72498C16.7499 2.90832 18.1249 4.53332 18.1249 8.32498V12.4917C18.1249 12.8417 17.8416 13.125 17.4999 13.125Z" fill="#818181"/>
<path d="M17.5 18.9583H15C14.6583 18.9583 14.375 18.675 14.375 18.3333C14.375 17.9916 14.6583 17.7083 15 17.7083H16.875V15.8333C16.875 15.4916 17.1583 15.2083 17.5 15.2083C17.8417 15.2083 18.125 15.4916 18.125 15.8333V18.3333C18.125 18.675 17.8417 18.9583 17.5 18.9583Z" fill="#818181"/>
<path d="M17.4665 18.925C17.3082 18.925 17.1499 18.8667 17.0249 18.7417L12.0582 13.775C11.8165 13.5334 11.8165 13.1334 12.0582 12.8917C12.2999 12.65 12.6999 12.65 12.9415 12.8917L17.9082 17.8584C18.1499 18.1 18.1499 18.5 17.9082 18.7417C17.7832 18.8584 17.6249 18.925 17.4665 18.925Z" fill="#818181"/>
</svg>
