<svg width="48" height="48" viewBox="0 0 48 48" fill="none" xmlns="http://www.w3.org/2000/svg">
<circle cx="24" cy="24" r="24" fill="white"/>
<path d="M31.17 18.64C30.74 16.47 29.13 15.52 26.89 15.52H18.11C15.47 15.52 13.71 16.84 13.71 19.92V25.07C13.71 27.29 14.62 28.59 16.12 29.15C16.34 29.23 16.58 29.3 16.83 29.34C17.23 29.43 17.66 29.47 18.11 29.47H26.9C29.54 29.47 31.3 28.15 31.3 25.07V19.92C31.3 19.45 31.26 19.03 31.17 18.64ZM17.53 24C17.53 24.41 17.19 24.75 16.78 24.75C16.37 24.75 16.03 24.41 16.03 24V21C16.03 20.59 16.37 20.25 16.78 20.25C17.19 20.25 17.53 20.59 17.53 21V24ZM22.5 25.14C21.04 25.14 19.86 23.96 19.86 22.5C19.86 21.04 21.04 19.86 22.5 19.86C23.96 19.86 25.14 21.04 25.14 22.5C25.14 23.96 23.96 25.14 22.5 25.14ZM28.96 24C28.96 24.41 28.62 24.75 28.21 24.75C27.8 24.75 27.46 24.41 27.46 24V21C27.46 20.59 27.8 20.25 28.21 20.25C28.62 20.25 28.96 20.59 28.96 21V24Z" fill="#1C79CF"/>
<path d="M34.2998 22.92V28.07C34.2998 31.15 32.5398 32.48 29.8898 32.48H21.1098C20.3598 32.48 19.6898 32.37 19.1098 32.15C18.6398 31.98 18.2298 31.73 17.8998 31.41C17.7198 31.24 17.8598 30.97 18.1098 30.97H26.8898C30.5898 30.97 32.7898 28.77 32.7898 25.08V19.92C32.7898 19.68 33.0598 19.53 33.2298 19.71C33.9098 20.43 34.2998 21.48 34.2998 22.92Z" fill="#1C79CF"/>
</svg>
