<svg width="20" height="20" viewBox="0 0 20 20" fill="none" xmlns="http://www.w3.org/2000/svg">
<path d="M9.16654 1.65833C5.02487 1.65833 1.6582 5.02499 1.6582 9.16666C1.6582 13.3083 5.02487 16.675 9.16654 16.675C13.3082 16.675 16.6749 13.3083 16.6749 9.16666C16.6749 5.02499 13.3082 1.65833 9.16654 1.65833ZM9.16654 11.0417H6.66654C6.32487 11.0417 6.04154 10.7583 6.04154 10.4167C6.04154 10.075 6.32487 9.79166 6.66654 9.79166H9.16654C9.5082 9.79166 9.79154 10.075 9.79154 10.4167C9.79154 10.7583 9.5082 11.0417 9.16654 11.0417ZM11.6665 8.54166H6.66654C6.32487 8.54166 6.04154 8.25833 6.04154 7.91666C6.04154 7.57499 6.32487 7.29166 6.66654 7.29166H11.6665C12.0082 7.29166 12.2915 7.57499 12.2915 7.91666C12.2915 8.25833 12.0082 8.54166 11.6665 8.54166Z" fill="#818181"/>
<path d="M18.3252 15.7917C18.0502 15.2833 17.4669 15 16.6835 15C16.0919 15 15.5835 15.2417 15.2835 15.6583C14.9835 16.075 14.9169 16.6333 15.1002 17.1917C15.4585 18.275 16.0835 18.5167 16.4252 18.5583C16.4752 18.5667 16.5252 18.5667 16.5835 18.5667C16.9502 18.5667 17.5169 18.4083 18.0669 17.5833C18.5085 16.9417 18.5919 16.3 18.3252 15.7917Z" fill="#818181"/>
</svg>
