<svg width="20" height="20" viewBox="0 0 20 20" fill="none" xmlns="http://www.w3.org/2000/svg">
<path d="M9.99071 13.6767C8.06691 13.6767 6.50558 12.0282 6.50558 9.99694C6.50558 7.96573 8.06691 6.3172 9.99071 6.3172C11.9145 6.3172 13.4758 7.96573 13.4758 9.99694C13.4758 12.0282 11.9145 13.6767 9.99071 13.6767ZM9.99071 7.7891C8.83829 7.7891 7.89963 8.78018 7.89963 9.99694C7.89963 11.2137 8.83829 12.2048 9.99071 12.2048C11.1431 12.2048 12.0818 11.2137 12.0818 9.99694C12.0818 8.78018 11.1431 7.7891 9.99071 7.7891Z" fill="#818181"/>
<path d="M12.974 19.996C12.7788 19.996 12.5836 19.9666 12.3885 19.9175C11.8123 19.7507 11.329 19.368 11.0223 18.8283L10.9108 18.6321C10.3625 17.6312 9.60967 17.6312 9.06134 18.6321L8.95911 18.8185C8.65242 19.368 8.16914 19.7605 7.59294 19.9175C7.00743 20.0843 6.40335 19.996 5.89219 19.6722L4.29368 18.7008C3.72677 18.3573 3.31784 17.798 3.14126 17.1209C2.97398 16.4439 3.05762 15.7472 3.3829 15.1486C3.65242 14.6481 3.72677 14.1968 3.56877 13.9122C3.41078 13.6276 3.01115 13.4608 2.46283 13.4608C1.10595 13.4608 0 12.2931 0 10.8605V9.13343C0 7.70078 1.10595 6.53308 2.46283 6.53308C3.01115 6.53308 3.41078 6.36627 3.56877 6.0817C3.72677 5.79713 3.66171 5.34575 3.3829 4.8453C3.05762 4.24673 2.97398 3.54022 3.14126 2.87296C3.30855 2.19589 3.71747 1.63657 4.29368 1.29313L5.90149 0.321676C6.95167 -0.335771 8.33643 0.0469216 8.9684 1.17538L9.07993 1.37163C9.62825 2.37252 10.381 2.37252 10.9294 1.37163L11.0316 1.18519C11.6636 0.0469215 13.0483 -0.335771 14.1078 0.331488L15.7063 1.30294C16.2732 1.64638 16.6822 2.2057 16.8587 2.88278C17.026 3.55985 16.9424 4.25655 16.6171 4.85512C16.3476 5.35556 16.2732 5.80694 16.4312 6.09151C16.5892 6.37608 16.9888 6.54289 17.5372 6.54289C18.8941 6.54289 20 7.7106 20 9.14324V10.8703C20 12.3029 18.8941 13.4706 17.5372 13.4706C16.9888 13.4706 16.5892 13.6374 16.4312 13.922C16.2732 14.2066 16.3383 14.6579 16.6171 15.1584C16.9424 15.757 17.0353 16.4635 16.8587 17.1307C16.6915 17.8078 16.2825 18.3671 15.7063 18.7106L14.0985 19.682C13.7454 19.8881 13.3643 19.996 12.974 19.996ZM9.99071 16.3653C10.8178 16.3653 11.5892 16.9149 12.119 17.8863L12.2212 18.0728C12.3327 18.2788 12.5186 18.426 12.7416 18.4849C12.9647 18.5438 13.1877 18.5143 13.3736 18.3966L14.9814 17.4153C15.223 17.2681 15.4089 17.0228 15.4833 16.7284C15.5576 16.434 15.5204 16.1298 15.381 15.8747C14.8513 14.9131 14.7862 13.922 15.1952 13.1664C15.6041 12.4109 16.4498 11.9791 17.5093 11.9791C18.1041 11.9791 18.5781 11.4787 18.5781 10.8506V9.12362C18.5781 8.50542 18.1041 7.99516 17.5093 7.99516C16.4498 7.99516 15.6041 7.56341 15.1952 6.80783C14.7862 6.05226 14.8513 5.06118 15.381 4.09954C15.5204 3.84442 15.5576 3.54022 15.4833 3.24584C15.4089 2.95146 15.2323 2.71596 14.9907 2.55896L13.3829 1.58751C12.9833 1.33238 12.4535 1.47957 12.2119 1.91132L12.1097 2.09776C11.5799 3.06922 10.8085 3.61872 9.98141 3.61872C9.15427 3.61872 8.3829 3.06922 7.85316 2.09776L7.75093 1.90151C7.51859 1.48938 6.99814 1.34219 6.59851 1.58751L4.99071 2.56877C4.74907 2.71596 4.5632 2.96128 4.48885 3.25566C4.4145 3.55004 4.45167 3.85423 4.59108 4.10936C5.12082 5.071 5.18587 6.06207 4.77695 6.81765C4.36803 7.57322 3.5223 8.00498 2.46283 8.00498C1.86803 8.00498 1.39405 8.50542 1.39405 9.13343V10.8605C1.39405 11.4787 1.86803 11.9889 2.46283 11.9889C3.5223 11.9889 4.36803 12.4207 4.77695 13.1762C5.18587 13.9318 5.12082 14.9229 4.59108 15.8845C4.45167 16.1397 4.4145 16.4439 4.48885 16.7382C4.5632 17.0326 4.73978 17.2681 4.98141 17.4251L6.58922 18.3966C6.78439 18.5241 7.01673 18.5536 7.23048 18.4947C7.45353 18.4358 7.63941 18.2788 7.76022 18.0728L7.86245 17.8863C8.39219 16.9247 9.16357 16.3653 9.99071 16.3653Z" fill="#818181"/>
</svg>
