<svg width="48" height="48" viewBox="0 0 48 48" fill="none" xmlns="http://www.w3.org/2000/svg">
<circle cx="24" cy="24" r="24" fill="white"/>
<path d="M28.25 34.5C29.2165 34.5 30 33.7165 30 32.75C30 31.7835 29.2165 31 28.25 31C27.2835 31 26.5 31.7835 26.5 32.75C26.5 33.7165 27.2835 34.5 28.25 34.5Z" fill="#FFAC4A"/>
<path d="M20.25 34.5C21.2165 34.5 22 33.7165 22 32.75C22 31.7835 21.2165 31 20.25 31C19.2835 31 18.5 31.7835 18.5 32.75C18.5 33.7165 19.2835 34.5 20.25 34.5Z" fill="#FFAC4A"/>
<path d="M16.84 15.94L16.64 18.39C16.6 18.86 16.97 19.25 17.44 19.25H32.75C33.17 19.25 33.52 18.93 33.55 18.51C33.68 16.74 32.33 15.3 30.56 15.3H18.27C18.17 14.86 17.97 14.44 17.66 14.09C17.16 13.56 16.46 13.25 15.74 13.25H14C13.59 13.25 13.25 13.59 13.25 14C13.25 14.41 13.59 14.75 14 14.75H15.74C16.05 14.75 16.34 14.88 16.55 15.1C16.76 15.33 16.86 15.63 16.84 15.94Z" fill="#FFAC4A"/>
<path d="M32.5101 20.75H17.1701C16.7501 20.75 16.4101 21.07 16.3701 21.48L16.0101 25.83C15.8701 27.54 17.2101 29 18.9201 29H30.0401C31.5401 29 32.8601 27.77 32.9701 26.27L33.3001 21.6C33.3401 21.14 32.9801 20.75 32.5101 20.75Z" fill="#FFAC4A"/>
</svg>
