<svg width="20" height="20" viewBox="0 0 20 20" fill="none" xmlns="http://www.w3.org/2000/svg">
<path d="M17.3084 16.2753C17.3084 16.5753 17.2417 16.8837 17.1 17.1837C16.9584 17.4837 16.775 17.767 16.5334 18.0337C16.125 18.4837 15.675 18.8087 15.1667 19.017C14.6667 19.2253 14.125 19.3337 13.5417 19.3337C12.6917 19.3337 11.7834 19.1337 10.825 18.7253C9.86669 18.317 8.90835 17.767 7.95835 17.0753C7.00002 16.3753 6.09169 15.6003 5.22502 14.742C4.36669 13.8753 3.59169 12.967 2.90002 12.017C2.21669 11.067 1.66669 10.117 1.26669 9.17533C0.866687 8.22533 0.666687 7.31699 0.666687 6.45033C0.666687 5.88366 0.766687 5.34199 0.966687 4.84199C1.16669 4.33366 1.48335 3.86699 1.92502 3.45033C2.45835 2.92533 3.04169 2.66699 3.65835 2.66699C3.89169 2.66699 4.12502 2.71699 4.33335 2.81699C4.55002 2.91699 4.74169 3.06699 4.89169 3.28366L6.82502 6.00866C6.97502 6.21699 7.08335 6.40866 7.15835 6.59199C7.23335 6.76699 7.27502 6.94199 7.27502 7.10033C7.27502 7.30033 7.21669 7.50033 7.10002 7.69199C6.99169 7.88366 6.83335 8.08366 6.63335 8.28366L6.00002 8.94199C5.90835 9.03366 5.86669 9.14199 5.86669 9.27533C5.86669 9.34199 5.87502 9.40033 5.89169 9.46699C5.91669 9.53366 5.94169 9.58366 5.95835 9.63366C6.10835 9.90866 6.36669 10.267 6.73335 10.7003C7.10835 11.1337 7.50835 11.5753 7.94169 12.017C8.39169 12.4587 8.82502 12.867 9.26669 13.242C9.70002 13.6087 10.0584 13.8587 10.3417 14.0087C10.3834 14.0253 10.4334 14.0503 10.4917 14.0753C10.5584 14.1003 10.625 14.1087 10.7 14.1087C10.8417 14.1087 10.95 14.0587 11.0417 13.967L11.675 13.342C11.8834 13.1337 12.0834 12.9753 12.275 12.8753C12.4667 12.7587 12.6584 12.7003 12.8667 12.7003C13.025 12.7003 13.1917 12.7337 13.375 12.8087C13.5584 12.8837 13.75 12.992 13.9584 13.1337L16.7167 15.092C16.9334 15.242 17.0834 15.417 17.175 15.6253C17.2584 15.8337 17.3084 16.042 17.3084 16.2753Z" stroke="#E84A1C" stroke-width="1.2" stroke-miterlimit="10"/>
<path d="M14.4167 8.50065C14.4167 8.00065 14.0251 7.23398 13.4417 6.60898C12.9084 6.03398 12.2001 5.58398 11.5001 5.58398" stroke="#E84A1C" stroke-width="1.2" stroke-linecap="round" stroke-linejoin="round"/>
<path d="M17.3334 8.50033C17.3334 5.27533 14.7251 2.66699 11.5001 2.66699" stroke="#E84A1C" stroke-width="1.2" stroke-linecap="round" stroke-linejoin="round"/>
</svg>
