<svg width="20" height="20" viewBox="0 0 20 20" fill="none" xmlns="http://www.w3.org/2000/svg">
<path d="M18.3166 9.50854C18.0333 4.6752 13.6416 0.950212 8.58329 1.78355C5.09995 2.35855 2.30829 5.18353 1.76663 8.66686C1.44996 10.6835 1.86664 12.5919 2.77498 14.1669L2.0333 16.9252C1.86663 17.5502 2.44162 18.1169 3.05828 17.9419L5.77496 17.1919C7.00829 17.9169 8.44995 18.3335 9.99162 18.3335C14.6916 18.3335 18.5916 14.1919 18.3166 9.50854ZM14.0666 13.1002C13.9916 13.2502 13.8999 13.3919 13.7833 13.5252C13.5749 13.7502 13.3499 13.9169 13.0999 14.0169C12.8499 14.1252 12.575 14.1752 12.2833 14.1752C11.8583 14.1752 11.3999 14.0752 10.9249 13.8669C10.4416 13.6585 9.96664 13.3835 9.49164 13.0419C9.00831 12.6919 8.5583 12.3002 8.12496 11.8752C7.69163 11.4419 7.30828 10.9835 6.95828 10.5085C6.61661 10.0335 6.34162 9.55853 6.14162 9.08353C5.94163 8.60853 5.84164 8.15021 5.84164 7.71687C5.84164 7.43354 5.89163 7.15854 5.99163 6.90854C6.09163 6.65021 6.24998 6.41688 6.47498 6.20854C6.74165 5.94188 7.03329 5.81688 7.34163 5.81688C7.45829 5.81688 7.57494 5.84187 7.68327 5.89187C7.7916 5.94187 7.89163 6.01687 7.96663 6.12521L8.93327 7.49186C9.00827 7.60019 9.06661 7.69186 9.09995 7.78353C9.14161 7.8752 9.15829 7.95853 9.15829 8.04186C9.15829 8.14186 9.12497 8.24188 9.06663 8.34188C9.0083 8.44187 8.93327 8.54186 8.83327 8.64186L8.5166 8.97519C8.4666 9.02519 8.44997 9.0752 8.44997 9.14187C8.44997 9.1752 8.45827 9.20853 8.46661 9.24186C8.48327 9.2752 8.49164 9.3002 8.49997 9.3252C8.57497 9.46687 8.70828 9.64186 8.89161 9.85852C9.08328 10.0752 9.28332 10.3002 9.49998 10.5169C9.72498 10.7419 9.94164 10.9419 10.1666 11.1335C10.3833 11.3169 10.5666 11.4419 10.7083 11.5169C10.7333 11.5252 10.7583 11.5419 10.7833 11.5502C10.8166 11.5669 10.85 11.5669 10.8916 11.5669C10.9666 11.5669 11.0167 11.5419 11.0667 11.4919L11.3833 11.1752C11.4916 11.0669 11.5916 10.9919 11.6833 10.9419C11.7833 10.8835 11.875 10.8502 11.9833 10.8502C12.0666 10.8502 12.15 10.8669 12.2416 10.9085C12.3333 10.9502 12.4333 11.0002 12.5333 11.0752L13.9166 12.0585C14.025 12.1335 14.0999 12.2252 14.1499 12.3252C14.1916 12.4335 14.2166 12.5335 14.2166 12.6502C14.1666 12.7919 14.1333 12.9502 14.0666 13.1002Z" fill="white"/>
</svg>
