<svg width="20" height="20" viewBox="0 0 20 20" fill="none" xmlns="http://www.w3.org/2000/svg">
<path fill-rule="evenodd" clip-rule="evenodd" d="M13.2333 17.4333C13.2583 17.5667 13.1833 17.7083 13.0583 17.7583C12.1166 18.1333 11.0833 18.3333 10.0166 18.3333C8.17497 18.3333 6.47495 17.7417 5.09995 16.725C4.98328 16.6417 4.94998 16.475 5.02498 16.35C5.48331 15.5333 7.27494 12.9083 11.2333 11.4417C11.3833 11.3833 11.5499 11.4583 11.5999 11.6083C12.5916 14.2667 13.0583 16.5167 13.2333 17.4333Z" fill="white"/>
<path fill-rule="evenodd" clip-rule="evenodd" d="M18.1833 11.5752C17.8 13.6252 16.65 15.4085 15.0417 16.6252C14.8667 16.7585 14.6167 16.6585 14.575 16.4502C14.4 15.5502 13.975 13.6085 13.1583 11.3002C13.1 11.1252 13.2167 10.9335 13.4 10.9085C15.475 10.6585 17.2917 11.0585 17.975 11.2418C18.1167 11.2918 18.2083 11.4335 18.1833 11.5752Z" fill="white"/>
<path fill-rule="evenodd" clip-rule="evenodd" d="M17.9917 9.85021C17.1417 9.70021 14.975 9.38352 12.7584 9.62519C12.625 9.64186 12.5084 9.56686 12.45 9.44186C12.4167 9.36686 12.3917 9.29187 12.3584 9.21687C12.225 8.90853 12.0834 8.59187 11.9417 8.28354C11.8667 8.13354 11.9417 7.95019 12.0917 7.88353C14.425 6.87519 15.725 5.57519 16.2334 4.99186C16.3584 4.85019 16.5751 4.85854 16.6917 5.00854C17.6501 6.28354 18.2417 7.84186 18.3334 9.52519C18.3417 9.73353 18.1751 9.88354 17.9917 9.85021Z" fill="white"/>
<path fill-rule="evenodd" clip-rule="evenodd" d="M15.3667 3.99147C14.9334 4.51647 13.7167 5.76645 11.4084 6.68312C11.275 6.74145 11.1167 6.68312 11.0417 6.54978C9.97502 4.61645 8.84167 2.99146 8.31668 2.25812C8.19168 2.08312 8.2917 1.83313 8.50003 1.7998C8.98337 1.71647 9.4917 1.6748 10.0084 1.6748C12.025 1.6748 13.8834 2.39146 15.325 3.59146C15.45 3.68313 15.4667 3.86647 15.3667 3.99147Z" fill="white"/>
<path fill-rule="evenodd" clip-rule="evenodd" d="M9.18335 7.36651C6.02502 8.15818 3.23331 8.26652 2.21665 8.28318C2.02498 8.28318 1.88334 8.09985 1.93334 7.91651C2.53334 5.58318 4.13333 3.63319 6.24166 2.55819C6.36666 2.49152 6.525 2.53317 6.60833 2.64984C7.04166 3.24984 8.21666 4.94152 9.36666 6.93319C9.45833 7.09985 9.37502 7.31651 9.18335 7.36651Z" fill="white"/>
<path fill-rule="evenodd" clip-rule="evenodd" d="M10.7667 9.66635C10.8417 9.82469 10.75 10.0163 10.5834 10.0747C6.89172 11.2663 4.68338 14.2247 4.01671 15.2414C3.90838 15.408 3.67505 15.4164 3.55005 15.2664C2.38338 13.833 1.67505 12.1913 1.67505 10.1997V10.0497C1.67505 9.88301 1.80837 9.74968 1.97504 9.75801C3.02504 9.79968 6.45005 9.658 10.0084 8.633C10.1417 8.59134 10.2917 8.65802 10.35 8.78302C10.4917 9.07469 10.6334 9.36635 10.7667 9.66635Z" fill="white"/>
</svg>
