<svg width="34" height="34" viewBox="0 0 34 34" fill="none" xmlns="http://www.w3.org/2000/svg">
<circle cx="17" cy="17.0002" r="14.1667" fill="#161414"/>
<path d="M12.9895 19.0146C13.0725 18.3272 13.3544 17.9424 13.8857 17.5478C14.6459 17.0135 15.5954 17.3158 15.5954 17.3158V15.5227C15.8262 15.5168 16.0572 15.5305 16.2855 15.5636V17.8711C16.2855 17.8711 15.3362 17.5688 14.5761 18.1034C14.0451 18.4977 13.7626 18.8828 13.6799 19.5702C13.6773 19.9435 13.7473 20.4314 14.0699 20.8533C13.9902 20.8124 13.9089 20.7658 13.826 20.7135C13.1155 20.2363 12.986 19.5205 12.9895 19.0146ZM20.2061 12.2074C19.6832 11.6344 19.4855 11.0558 19.414 10.6494H20.0718C20.0718 10.6494 19.9406 11.715 20.8965 12.763L20.9098 12.777C20.6521 12.615 20.4159 12.4237 20.2061 12.2074ZM23.375 13.8319V16.093C23.375 16.093 22.5355 16.0601 21.9143 15.902C21.047 15.681 20.4895 15.342 20.4895 15.342C20.4895 15.342 20.1044 15.1003 20.0732 15.0834V19.7526C20.0732 20.0125 20.002 20.6618 19.785 21.2033C19.5016 21.9117 19.0643 22.3767 18.9839 22.4717C18.9839 22.4717 18.452 23.1002 17.5138 23.5235C16.668 23.9053 15.9254 23.8956 15.7035 23.9053C15.7035 23.9053 14.4199 23.9562 13.2648 23.2055C13.015 23.04 12.7819 22.8527 12.5684 22.6458L12.5741 22.6499C13.7295 23.4005 15.0128 23.3497 15.0128 23.3497C15.2351 23.34 15.9776 23.3497 16.8231 22.9679C17.7605 22.5446 18.2932 21.9161 18.2932 21.9161C18.3728 21.8211 18.8121 21.3561 19.0943 20.6474C19.3108 20.1062 19.3826 19.4567 19.3826 19.1967V14.5281C19.4137 14.5452 19.7985 14.787 19.7985 14.787C19.7985 14.787 20.3563 15.1263 21.2237 15.347C21.8452 15.505 22.6843 15.5379 22.6843 15.5379V13.7661C22.9714 13.8305 23.2161 13.8479 23.375 13.8319Z" fill="#EE1D52"/>
<path d="M22.6846 13.7661V15.5374C22.6846 15.5374 21.8455 15.5045 21.224 15.3464C20.3566 15.1254 19.7988 14.7864 19.7988 14.7864C19.7988 14.7864 19.414 14.5447 19.3828 14.5276V19.1972C19.3828 19.4572 19.3116 20.1067 19.0946 20.648C18.8112 21.3566 18.3739 21.8216 18.2935 21.9167C18.2935 21.9167 17.7614 22.5452 16.8234 22.9684C15.9779 23.3503 15.2354 23.3406 15.0131 23.3503C15.0131 23.3503 13.7298 23.4011 12.5744 22.6504L12.5687 22.6463C12.4467 22.5282 12.3319 22.4035 12.2248 22.2728C11.8561 21.8233 11.6301 21.2917 11.5733 21.14C11.5732 21.1394 11.5732 21.1387 11.5733 21.1381C11.4819 20.8745 11.2899 20.2416 11.3162 19.6285C11.3626 18.5469 11.7431 17.883 11.8437 17.7166C12.1101 17.2631 12.4567 16.8573 12.8679 16.5173C13.2307 16.2239 13.642 15.9905 14.0849 15.8266C14.5637 15.6342 15.0763 15.531 15.5954 15.5227V17.3158C15.5954 17.3158 14.6459 17.0146 13.886 17.5478C13.3547 17.9424 13.0728 18.3272 12.9898 19.0146C12.9863 19.5205 13.1158 20.2363 13.8258 20.7137C13.9086 20.7662 13.9899 20.8128 14.0696 20.8535C14.1937 21.0148 14.3446 21.1552 14.5164 21.2693C15.21 21.7083 15.7911 21.739 16.5343 21.4539C17.0298 21.2632 17.4028 20.8336 17.5757 20.3576C17.6844 20.0603 17.683 19.7611 17.683 19.4517V10.6494H19.4125C19.484 11.0558 19.6818 11.6344 20.2047 12.2074C20.4144 12.4237 20.6507 12.615 20.9083 12.777C20.9844 12.8558 21.3736 13.2451 21.8731 13.484C22.1314 13.6076 22.4037 13.7022 22.6846 13.7661Z" fill="white"/>
<path d="M10.8849 20.5894V20.5907L10.9278 20.7071C10.9229 20.6935 10.907 20.6523 10.8849 20.5894Z" fill="#69C9D0"/>
<path d="M14.0849 15.8266C13.6421 15.9905 13.2308 16.2239 12.8679 16.5173C12.4566 16.858 12.1101 17.2647 11.844 17.7191C11.7434 17.8849 11.3629 18.5493 11.3165 19.631C11.2902 20.244 11.4822 20.877 11.5736 21.1406C11.5735 21.1412 11.5735 21.1419 11.5736 21.1425C11.6313 21.2928 11.8564 21.8244 12.2251 22.2752C12.3322 22.4059 12.447 22.5307 12.569 22.6488C12.1781 22.3897 11.8296 22.0765 11.5347 21.7194C11.1692 21.2737 10.9438 20.7477 10.885 20.5924C10.8849 20.5913 10.8849 20.5902 10.885 20.5891V20.5872C10.7933 20.3239 10.6007 19.6906 10.6275 19.0768C10.6739 17.9951 11.0544 17.3312 11.1551 17.1649C11.4211 16.7104 11.7675 16.3038 12.179 15.9631C12.5418 15.6696 12.9531 15.4362 13.396 15.2724C13.6723 15.1625 13.9601 15.0815 14.2544 15.0306C14.6981 14.9564 15.1511 14.95 15.5969 15.0116V15.5227C15.0773 15.5308 14.5641 15.634 14.0849 15.8266Z" fill="#69C9D0"/>
<path d="M19.414 10.6496H17.6844V19.4522C17.6844 19.7616 17.6844 20.06 17.5772 20.3581C17.4025 20.8338 17.0309 21.2635 16.5357 21.4541C15.7923 21.7403 15.2111 21.7085 14.5179 21.2695C14.3458 21.156 14.1944 21.0159 14.0699 20.8551C14.6606 21.1571 15.1892 21.1518 15.8442 20.8999C16.3391 20.7092 16.7112 20.2796 16.8854 19.8036C16.9943 19.5063 16.9929 19.2071 16.9929 18.898V10.0938H19.3811C19.3811 10.0938 19.3543 10.3126 19.414 10.6496ZM22.6846 13.2765V13.7663C22.4042 13.7023 22.1324 13.6077 21.8746 13.4843C21.375 13.2453 20.9859 12.856 20.9098 12.7773C20.9981 12.8328 21.0897 12.8834 21.1842 12.9287C21.7916 13.2193 22.3897 13.3061 22.6846 13.2765Z" fill="#69C9D0"/>
</svg>
