<svg width="34" height="34" viewBox="0 0 34 34" fill="none" xmlns="http://www.w3.org/2000/svg">
<circle cx="17" cy="17.0002" r="14.1667" fill="#1DA1F2"/>
<path fill-rule="evenodd" clip-rule="evenodd" d="M25.5 11.5518C24.875 11.8294 24.2024 12.0164 23.497 12.1009C24.2172 11.6691 24.7702 10.9857 25.0303 10.1715C24.3571 10.5715 23.6097 10.8611 22.8159 11.018C22.1796 10.3403 21.2724 9.9165 20.27 9.9165C18.344 9.9165 16.7824 11.4781 16.7824 13.4041C16.7824 13.6772 16.8136 13.9435 16.8731 14.1991C13.9742 14.054 11.4045 12.6652 9.68425 10.5551C9.38394 11.0702 9.21225 11.6691 9.21225 12.3082C9.21225 13.518 9.82704 14.5855 10.7637 15.2111C10.1914 15.193 9.65422 15.036 9.18335 14.7748V14.8184C9.18335 16.5087 10.3863 17.9179 11.9808 18.2392C11.6884 18.3185 11.3802 18.3615 11.0623 18.3615C10.8373 18.3615 10.6186 18.3394 10.4056 18.2986C10.8492 19.6841 12.1378 20.6927 13.6637 20.721C12.4704 21.6559 10.9665 22.2141 9.33238 22.2141C9.0502 22.2141 8.77255 22.1976 8.5 22.1648C10.0435 23.1541 11.8765 23.7321 13.8461 23.7321C20.2609 23.7321 23.7689 18.4176 23.7689 13.8092C23.7689 13.658 23.7661 13.5072 23.7588 13.3582C24.441 12.8652 25.0325 12.251 25.5 11.5518Z" fill="white"/>
</svg>
