<svg width="34" height="34" viewBox="0 0 34 34" fill="none" xmlns="http://www.w3.org/2000/svg">
<circle cx="17" cy="17.0002" r="14.1667" fill="#FF0000"/>
<path fill-rule="evenodd" clip-rule="evenodd" d="M25.0045 11.6011C25.2872 11.8838 25.4909 12.2356 25.5953 12.6216C26.1966 15.042 26.0577 18.8646 25.607 21.3784C25.5026 21.7643 25.2989 22.1162 25.0162 22.3989C24.7335 22.6816 24.3817 22.8853 23.9957 22.9897C22.583 23.375 16.8968 23.375 16.8968 23.375C16.8968 23.375 11.2107 23.375 9.79794 22.9897C9.41203 22.8853 9.0602 22.6816 8.77751 22.3989C8.49481 22.1162 8.29111 21.7643 8.18668 21.3784C7.58187 18.9685 7.74767 15.1435 8.175 12.6332C8.27943 12.2473 8.48314 11.8955 8.76583 11.6128C9.04853 11.3301 9.40035 11.1264 9.78627 11.022C11.199 10.6367 16.8852 10.625 16.8852 10.625C16.8852 10.625 22.5713 10.625 23.9841 11.0103C24.37 11.1147 24.7218 11.3184 25.0045 11.6011ZM19.7924 17L15.0754 19.7321V14.2679L19.7924 17Z" fill="white"/>
</svg>
